<svg width="17" height="16" viewBox="0 0 17 16" fill="none" xmlns="http://www.w3.org/2000/svg">
<path fill-rule="evenodd" clip-rule="evenodd" d="M4.67596 11.824C4.78846 11.9364 4.94096 11.9995 5.09996 11.9995C5.25896 11.9995 5.41146 11.9364 5.52396 11.824L11.3 6.048V10.6C11.3 10.7591 11.3632 10.9117 11.4757 11.0243C11.5882 11.1368 11.7408 11.2 11.9 11.2C12.0591 11.2 12.2117 11.1368 12.3242 11.0243C12.4367 10.9117 12.5 10.7591 12.5 10.6V4.6C12.5 4.44087 12.4367 4.28826 12.3242 4.17574C12.2117 4.06321 12.0591 4 11.9 4H5.89996C5.74083 4 5.58822 4.06321 5.4757 4.17574C5.36317 4.28826 5.29996 4.44087 5.29996 4.6C5.29996 4.75913 5.36317 4.91174 5.4757 5.02426C5.58822 5.13679 5.74083 5.2 5.89996 5.2H10.452L4.67596 10.976C4.5636 11.0885 4.50049 11.241 4.50049 11.4C4.50049 11.559 4.5636 11.7115 4.67596 11.824Z" fill="#E2E8F0"/>
</svg>
